<svg version="1.1" id="Layer_1" xmlns="http://www.w3.org/2000/svg" x="0px" y="0px"
	 viewBox="0 0 468 447" style="enableBackground:new 0 0 468 447;">
	<g>
		<path class="st0" fill="none" d="M454.9,173.2c0.8-0.8,0.7-1.6,0.5-2.2c-0.2-0.6-0.7-1.3-1.8-1.5l-142.8-20c-5.5-0.8-10.3-4.2-12.8-9.2
			l-64.5-129c-0.5-1-1.3-1.2-1.9-1.2c-0.6,0-1.5,0.2-2,1.2L166.6,141c-2.4,5-7.2,8.5-12.7,9.3L11.3,171.9c-1.1,0.2-1.6,0.9-1.8,1.5
			s-0.2,1.5,0.6,2.2l103.8,100.1c4,3.9,5.9,9.5,5,15L95.2,432.9c-0.1,0.7,0,1.2,0.5,1.7c0.4,0.5,1.1,0.8,1.7,0.8c0.3,0,0.7-0.1,1-0.3
			l127.3-67.8c2.4-1.3,5.2-2,8-2c2.7,0,5.4,0.7,7.8,1.9l128,66.4c0.3,0.2,0.7,0.3,1,0.3c0.6,0,1.3-0.3,1.7-0.8
			c0.4-0.5,0.6-1.1,0.4-1.7l-25.1-142c-1-5.5,0.8-11.1,4.8-15L454.9,173.2z"/>
		<g>
			<path class="st1" fill="#EFE922" d="M455.5,171c-0.2-0.6-0.7-1.3-1.8-1.5l-142.8-20c-5.5-0.8-10.3-4.2-12.8-9.2l-64.5-129c-0.5-1-1.3-1.2-1.9-1.2
				c-0.6,0-1.5,0.2-2,1.2L166.6,141c-2.4,5-7.2,8.5-12.7,9.3L11.3,171.9c-1.1,0.2-1.6,0.9-1.8,1.5s-0.2,1.5,0.6,2.2l103.8,100.1
				c4,3.9,5.9,9.5,5,15L95.2,432.9c-0.1,0.7,0,1.2,0.5,1.7c0.4,0.5,1.1,0.8,1.7,0.8c0.3,0,0.7-0.1,1-0.3l127.3-67.8
				c2.4-1.3,5.2-2,8-2c2.7,0,5.4,0.7,7.8,1.9l128,66.4c0.3,0.2,0.7,0.3,1,0.3c0.6,0,1.3-0.3,1.7-0.8c0.4-0.5,0.6-1.1,0.4-1.7
				l-25.1-142c-1-5.5,0.8-11.1,4.8-15l102.7-101.2C455.7,172.5,455.7,171.6,455.5,171z"/>
			<path d="M460.1,178.5c5.6-5.6,2.5-15.2-5.4-16.3l-142.8-20c-3.1-0.4-5.8-2.4-7.2-5.2l-64.5-129c-1.8-3.5-5.2-5.3-8.6-5.3
				c-3.4,0-6.9,1.8-8.6,5.4l-63.1,129.6c-1.4,2.8-4.1,4.8-7.2,5.3L10.2,164.6c-7.8,1.2-10.9,10.8-5.2,16.3L108.8,281
				c2.3,2.2,3.3,5.3,2.8,8.5L87.9,431.7c-1,6.2,3.9,11.2,9.4,11.2c1.5,0,3-0.4,4.5-1.1l127.3-67.8c1.4-0.7,3-1.1,4.5-1.1
				c1.5,0,3,0.4,4.4,1.1l128,66.4c1.5,0.8,3,1.1,4.4,1.1c5.6,0,10.5-5.1,9.4-11.3l-25.1-142c-0.5-3.1,0.5-6.3,2.7-8.5L460.1,178.5z
				M347.4,289.5l25.1,142c0.1,0.7,0,1.3-0.4,1.7c-0.4,0.5-1.1,0.8-1.7,0.8c-0.3,0-0.7-0.1-1-0.3l-128-66.4c-2.4-1.2-5.1-1.9-7.8-1.9
				c-2.8,0-5.5,0.7-8,2L98.4,435.2c-0.3,0.2-0.7,0.3-1,0.3c-0.6,0-1.3-0.3-1.7-0.8c-0.4-0.5-0.6-1.1-0.5-1.7l23.6-142.2
				c0.9-5.5-0.9-11.1-5-15L10.1,175.6c-0.8-0.8-0.8-1.6-0.6-2.2s0.6-1.3,1.8-1.5l142.6-21.5c5.5-0.8,10.3-4.3,12.7-9.3l63.1-129.6
				c0.5-1,1.3-1.2,2-1.2c0.6,0,1.4,0.2,1.9,1.2l64.5,129c2.5,5,7.3,8.4,12.8,9.2l142.8,20c1.1,0.2,1.6,0.9,1.8,1.5
				c0.2,0.6,0.3,1.5-0.5,2.2L352.2,274.4C348.3,278.3,346.5,284,347.4,289.5z"/>
		</g>
	</g>
</svg>
