<svg version="1.1" id="ai-svg" xmlns="http://www.w3.org/2000/svg" 
	x="0px" y="0px"
	 width="300px" height="300px" viewBox="150 0 300 300" enableBackground="new 150 0 300 300">
	<g>
		<path fill="none" d="M366.225,70.616c0-2.614-0.916-4.847-2.77-6.704C365.309,65.77,366.225,68.003,366.225,70.616z"/>
		<polygon fill="none" points="277.846,63.461 327,225 277.847,63.461 	"/>
		<polygon fill="#6D4C13" points="248.769,155.77 288.231,155.77 268.154,90.231 	"/>
		<path fill="#6D4C13" d="M385.529,0H214.477C178.863,0,150,28.863,150,64.477v171.046C150,271.137,178.863,300,214.477,300h171.046
			C421.137,300,450,271.137,450,235.529V64.477C450,28.863,421.137,0,385.529,0z M308.309,225l-15.924-52.154h-48L229.154,225h-18
			l47.538-161.539h0.001h19.153h0.001L327,225H308.309z M364.846,225H348.23V109.385h16.615V225z M363.455,77.308
			c-1.846,1.841-4.037,2.764-6.576,2.764c-2.222,0-4.209-0.733-5.957-2.208c-0.25-0.21-0.494-0.437-0.734-0.677
			c-1.928-1.921-2.886-4.113-2.886-6.577c0-2.464,0.958-4.656,2.886-6.583c1.92-1.921,4.152-2.885,6.691-2.885s4.73,0.923,6.576,2.77
			c1.854,1.857,2.77,4.09,2.77,6.704C366.225,73.229,365.302,75.462,363.455,77.308z"/>
		<path fill="#FFBD2E" d="M258.693,63.461L258.693,63.461L211.154,225h18l15.231-52.154h48L308.309,225H327L277.846,63.461H258.693z
			M248.769,155.77l19.385-65.539l20.077,65.539H248.769z"/>
		<path fill="#FFBD2E" d="M356.879,61.142c-2.539,0-4.771,0.964-6.691,2.885c-1.928,1.927-2.886,4.119-2.886,6.583
			c0,2.464,0.958,4.656,2.886,6.577c0.24,0.241,0.484,0.467,0.734,0.677c1.748,1.475,3.735,2.208,5.957,2.208
			c2.539,0,4.73-0.923,6.576-2.764c1.847-1.846,2.77-4.079,2.77-6.692c0-2.613-0.916-4.846-2.77-6.704
			C361.609,62.065,359.418,61.142,356.879,61.142z"/>
		<rect x="348.23" y="109.385" fill="#FFBD2E" width="16.615" height="115.615"/>
	</g>
</svg>
