<svg version="1.1" id="Layer_1" xmlns="http://www.w3.org/2000/svg" xmlns:xlink="http://www.w3.org/1999/xlink" x="0px" y="0px"
	 width="600px" height="600px" viewBox="0 0 600 600" enable-background="new 0 0 600 600" xml:space="preserve">
	<g>
		<linearGradient id="SVGID_1_" gradientUnits="userSpaceOnUse" x1="4.3164" y1="513.0527" x2="342.2629" y2="-72.2878">
			<stop  offset="0" style="stop-color:#338991"/>
			<stop  offset="1" style="stop-color:#445E7F"/>
		</linearGradient>
		<polygon fill="url(#SVGID_1_)" points="67.186,195.226 209.849,195.226 209.849,156.419 67.186,156.419 67.186,63.81 
			233.223,63.81 233.223,53.209 532.375,53.209 532.375,52.708 532.375,50.756 532.375,48.803 532.375,46.849 532.375,44.897 
			532.375,42.945 532.375,40.993 532.375,39.04 532.375,37.473 233.223,37.473 233.223,24.999 23.525,24.999 23.525,353.326 
			37.583,353.326 37.583,532.259 40.657,532.259 44.04,532.259 47.422,532.259 50.805,532.259 53.319,532.259 53.319,353.326 
			67.186,353.326 	"/>
		<linearGradient id="SVGID_2_" gradientUnits="userSpaceOnUse" x1="257.5488" y1="671.8691" x2="595.5283" y2="86.4714">
			<stop  offset="0" style="stop-color:#338991"/>
			<stop  offset="1" style="stop-color:#445E7F"/>
		</linearGradient>
		<polygon fill="url(#SVGID_2_)" points="562.039,532.103 562.039,67.136 560.747,67.136 557.364,67.136 553.983,67.136 
			550.602,67.136 547.22,67.136 546.303,67.136 546.303,532.103 395.132,532.103 395.132,212.073 346.87,212.073 346.87,546.187 
			67.116,546.187 67.116,547.534 67.116,549.488 67.116,551.441 67.116,553.393 67.116,555.346 67.116,557.3 67.116,559.251 
			67.116,561.204 67.116,561.923 346.87,561.923 346.87,575 576.474,575 576.474,532.103 	"/>
	</g>
</svg>
