<svg version="1.1" id="Layer_1" xmlns="http://www.w3.org/2000/svg" 
	x="0px" y="0px"
	width="300px" height="300px" viewBox="150 0 300 300" enableBackground="new 150 0 300 300"
	>
<path fill="#EFE922" d="M448.322,116.242c0.47-0.47,0.47-1.074,0.335-1.477c-0.134-0.403-0.47-0.873-1.207-1.007l-95.839-13.423
	c-3.691-0.537-6.913-2.819-8.592-6.174L299.731,7.584c-0.335-0.671-0.873-0.806-1.275-0.806c-0.403,0-1.007,0.134-1.342,0.806
	l-42.349,87.047c-1.611,3.355-4.832,5.705-8.523,6.242l-95.705,14.497c-0.738,0.134-1.074,0.604-1.208,1.007
	c-0.134,0.402-0.134,1.007,0.402,1.477l69.665,67.181c2.685,2.617,3.959,6.376,3.355,10.067l-15.906,95.437
	c-0.067,0.47,0,0.805,0.335,1.141c0.269,0.336,0.738,0.537,1.141,0.537c0.201,0,0.47-0.067,0.671-0.201l85.437-45.504
	c1.61-0.872,3.49-1.342,5.369-1.342c1.813,0,3.624,0.47,5.234,1.275l85.906,44.563c0.201,0.134,0.47,0.201,0.672,0.201
	c0.402,0,0.872-0.201,1.141-0.537c0.268-0.335,0.402-0.737,0.268-1.141l-16.846-95.302c-0.67-3.691,0.537-7.45,3.223-10.067
	L448.322,116.242z"/>
</svg>
